<?xml version="1.0" encoding="UTF-8"?>
<svg width="24px" height="24px" viewBox="0 0 24 24" version="1.1" xmlns="http://www.w3.org/2000/svg" xmlns:xlink="http://www.w3.org/1999/xlink">
    <!-- Generator: Sketch 52.6 (67491) - http://www.bohemiancoding.com/sketch -->
    <title>Icon / Apple</title>
    <desc>Created with Sketch.</desc>
    <g id="Icon-/-Apple" stroke="none" stroke-width="1" fill="none" fill-rule="evenodd">
        <path d="M12.2292264,6.42496999 C12.6112722,6.42496999 13.2893934,6.26170631 14.2636103,5.93517407 C15.2378272,5.60864182 16.0687645,5.44537815 16.756447,5.44537815 C17.9025845,5.44537815 18.9245418,5.75269801 19.8223496,6.36734694 C20.0706794,6.55942473 20.3190054,6.77070713 20.5673352,7.00120048 C20.815665,7.23169383 21.0639911,7.5005987 21.3123209,7.80792317 C20.5673315,8.46098766 20.0229244,9.03721239 19.6790831,9.53661465 C19.0487074,10.4201725 18.7335244,11.4093583 18.7335244,12.5042017 C18.7335244,13.695084 19.0678095,14.7707035 19.7363897,15.7310924 C20.3858676,16.6722736 21.1403968,17.2773096 22,17.5462185 C21.8089771,18.1224519 21.570202,18.7130822 21.2836676,19.3181273 C20.9971332,19.9231723 20.6532971,20.5330101 20.252149,21.1476591 C19.0296023,23.0108136 17.7975229,23.942377 16.5558739,23.942377 C16.040112,23.942377 15.3619908,23.788717 14.52149,23.4813926 C13.7000914,23.1932759 12.9837662,23.0492197 12.3724928,23.0492197 C11.7421172,23.0492197 11.054445,23.2028796 10.3094556,23.5102041 C9.50715931,23.8367363 8.87679312,24 8.41833811,24 C6.9665639,24 5.53391347,22.7611168 4.12034384,20.2833133 C2.70677421,17.8247176 2,15.4045737 2,13.0228091 C2,10.8331223 2.53485616,9.0372219 3.60458453,7.63505402 C4.69341519,6.25209393 6.0592086,5.56062425 7.70200573,5.56062425 C8.40879054,5.56062425 9.2588298,5.70468043 10.252149,5.99279712 C11.2645705,6.28091381 11.9235897,6.42496999 12.2292264,6.42496999 Z M16.6131805,0.605042017 C16.6131805,1.21969095 16.4699155,1.88234939 16.1833811,2.59303721 C15.8968467,3.30372504 15.4575006,3.96638348 14.8653295,4.58103241 C14.311363,5.09964245 13.7860579,5.44537729 13.2893983,5.6182473 C12.9264547,5.71428619 12.4393536,5.79111616 11.8280802,5.8487395 C11.8471825,4.42736384 12.2148961,3.19328255 12.9312321,2.14645858 C13.6475681,1.09963462 14.8462189,0.384155582 16.5272206,0 C16.5654252,0.134454454 16.5893027,0.2496994 16.5988539,0.345738295 C16.608405,0.441777191 16.6131805,0.5282109 16.6131805,0.605042017 Z" id="" fill="#000000" fill-rule="nonzero"></path>
    </g>
</svg>