<?xml version="1.0" encoding="UTF-8"?>
<svg width="24px" height="24px" viewBox="0 0 24 24" version="1.1" xmlns="http://www.w3.org/2000/svg" xmlns:xlink="http://www.w3.org/1999/xlink">
    <!-- Generator: Sketch 52.6 (67491) - http://www.bohemiancoding.com/sketch -->
    <title>Icon / At</title>
    <desc>Created with Sketch.</desc>
    <g id="Icon-/-At" stroke="none" stroke-width="1" fill="none" fill-rule="evenodd">
        <path d="M12.7156736,2.02567361 C6.62567361,1.59567361 1.59567361,6.62567361 2.02567361,12.7156736 C2.38567361,18.0056736 7.00567361,21.9956736 12.3056736,21.9956736 L15.9956736,21.9956736 C16.5456736,21.9956736 16.9956736,21.5456736 16.9956736,20.9956736 C16.9956736,20.4456736 16.5456736,19.9956736 15.9956736,19.9956736 L12.3256736,19.9956736 C8.59567361,19.9956736 5.17567361,17.5756736 4.24567361,13.9656736 C2.75567361,8.16567361 8.15567361,2.75567361 13.9556736,4.25567361 C17.5756736,5.17567361 19.9956736,8.59567361 19.9956736,12.3256736 L19.9956736,13.4256736 C19.9956736,14.2156736 19.2856736,14.9956736 18.4956736,14.9956736 C17.7056736,14.9956736 16.9956736,14.2156736 16.9956736,13.4256736 L16.9956736,12.1756736 C16.9956736,9.66567361 15.2156736,7.40567361 12.7356736,7.05567361 C9.33567361,6.56567361 6.46567361,9.50567361 7.07567361,12.9256736 C7.41567361,14.8356736 8.90567361,16.4156736 10.7956736,16.8656736 C12.6356736,17.2956736 14.3856736,16.7056736 15.5356736,15.5356736 C16.4256736,16.7556736 18.2056736,17.3956736 19.8356736,16.7456736 C21.1756736,16.2156736 21.9956736,14.8456736 21.9956736,13.4056736 L21.9956736,12.3156736 C21.9956736,7.00567361 18.0056736,2.38567361 12.7156736,2.02567361 Z M11.9956736,14.9956736 C10.3356736,14.9956736 8.99567361,13.6556736 8.99567361,11.9956736 C8.99567361,10.3356736 10.3356736,8.99567361 11.9956736,8.99567361 C13.6556736,8.99567361 14.9956736,10.3356736 14.9956736,11.9956736 C14.9956736,13.6556736 13.6556736,14.9956736 11.9956736,14.9956736 Z" id="Shape" fill="#000000" fill-rule="nonzero"></path>
    </g>
</svg>