<?xml version="1.0" encoding="UTF-8"?>
<svg width="24px" height="24px" viewBox="0 0 24 24" version="1.1" xmlns="http://www.w3.org/2000/svg" xmlns:xlink="http://www.w3.org/1999/xlink">
    <!-- Generator: Sketch 52.6 (67491) - http://www.bohemiancoding.com/sketch -->
    <title>Icon / Attachment</title>
    <desc>Created with Sketch.</desc>
    <g id="Icon-/-Attachment" stroke="none" stroke-width="1" fill="none" fill-rule="evenodd">
        <path d="M16.5,6.74916946 L16.5,17.3291695 C16.5,19.4191695 14.97,21.2791695 12.89,21.4791695 C10.5,21.7091695 8.5,19.8391695 8.5,17.4991695 L8.5,5.13916946 C8.5,3.82916946 9.44,2.63916946 10.74,2.50916946 C12.24,2.35916946 13.5,3.52916946 13.5,4.99916946 L13.5,15.4991695 C13.5,16.0491695 13.05,16.4991695 12.5,16.4991695 C11.95,16.4991695 11.5,16.0491695 11.5,15.4991695 L11.5,6.74916946 C11.5,6.33916946 11.16,5.99916946 10.75,5.99916946 C10.34,5.99916946 10,6.33916946 10,6.74916946 L10,15.3591695 C10,16.6691695 10.94,17.8591695 12.24,17.9891695 C13.74,18.1391695 15,16.9691695 15,15.4991695 L15,5.16916946 C15,3.07916946 13.47,1.21916946 11.39,1.01916946 C9.01,0.789169457 7,2.65916946 7,4.99916946 L7,17.2691695 C7,20.1391695 9.1,22.7091695 11.96,22.9791695 C15.25,23.2791695 18,20.7191695 18,17.4991695 L18,6.74916946 C18,6.33916946 17.66,5.99916946 17.25,5.99916946 C16.84,5.99916946 16.5,6.33916946 16.5,6.74916946 Z" id="Path" fill="#000000" fill-rule="nonzero"></path>
    </g>
</svg>