<?xml version="1.0" encoding="UTF-8"?>
<svg width="24px" height="24px" viewBox="0 0 24 24" version="1.1" xmlns="http://www.w3.org/2000/svg" xmlns:xlink="http://www.w3.org/1999/xlink">
    <!-- Generator: Sketch 52.6 (67491) - http://www.bohemiancoding.com/sketch -->
    <title>Icon / Barcode</title>
    <desc>Created with Sketch.</desc>
    <g id="Icon-/-Barcode" stroke="none" stroke-width="1" fill="none" fill-rule="evenodd">
        <path d="M5,7 L7,7 L7,17 L5,17 L5,7 Z M8,7 L9,7 L9,17 L8,17 L8,7 Z M10,7 L13,7 L13,17 L10,17 L10,7 Z M14,7 L15,7 L15,17 L14,17 L14,7 Z M17,7 L19,7 L19,17 L17,17 L17,7 Z M3,5 L3,9 L1,9 L1,5 C1,3.8954305 1.8954305,3 3,3 L7,3 L7,5 L3,5 Z M21,3 C22.1045695,3 23,3.8954305 23,5 L23,9 L21,9 L21,5 L17,5 L17,3 L21,3 Z M3,15 L3,19 L7,19 L7,21 L3,21 C1.8954305,21 1,20.1045695 1,19 L1,15 L3,15 Z M21,19 L21,15 L23,15 L23,19 C23,20.1045695 22.1045695,21 21,21 L17,21 L17,19 L21,19 Z" id="Shape" fill="#000000" fill-rule="nonzero"></path>
    </g>
</svg>