<?xml version="1.0" encoding="UTF-8"?>
<svg width="24px" height="24px" viewBox="0 0 24 24" version="1.1" xmlns="http://www.w3.org/2000/svg" xmlns:xlink="http://www.w3.org/1999/xlink">
    <!-- Generator: Sketch 52.6 (67491) - http://www.bohemiancoding.com/sketch -->
    <title>Icon / Bold</title>
    <desc>Created with Sketch.</desc>
    <g id="Icon-/-Bold" stroke="none" stroke-width="1" fill="none" fill-rule="evenodd">
        <path d="M15.6,10.79 C16.57,10.12 17.25,9.02 17.25,8 C17.25,5.74 15.5,4 13.25,4 L8,4 C7.45,4 7,4.45 7,5 L7,17 C7,17.55 7.45,18 8,18 L13.78,18 C15.85,18 17.74,16.31 17.75,14.23 C17.76,12.7 16.9,11.39 15.6,10.79 Z M10,6.5 L13,6.5 C13.83,6.5 14.5,7.17 14.5,8 C14.5,8.83 13.83,9.5 13,9.5 L10,9.5 L10,6.5 Z M13.5,15.5 L10,15.5 L10,12.5 L13.5,12.5 C14.33,12.5 15,13.17 15,14 C15,14.83 14.33,15.5 13.5,15.5 Z" id="Shape" fill="#000000" fill-rule="nonzero"></path>
    </g>
</svg>