<?xml version="1.0" encoding="utf-8"?>
<!-- Generator: Adobe Illustrator 23.0.1, SVG Export Plug-In . SVG Version: 6.00 Build 0)  -->
<svg version="1.1" id="Layer_1" xmlns="http://www.w3.org/2000/svg" xmlns:xlink="http://www.w3.org/1999/xlink" x="0px" y="0px"
	 viewBox="0 0 24 24" style="enable-background:new 0 0 24 24;" xml:space="preserve">
<title>Icon / Check Circle</title>
<desc>Created with Sketch.</desc>
<g id="Page-1">
	<g id="cancel">
		<path d="M12,2C6.5,2,2,6.5,2,12s4.5,10,10,10s10-4.5,10-10S17.5,2,12,2z M16.3,16.3c-0.4,0.4-1,0.4-1.4,0L12,13.4l-2.9,2.9
			c-0.4,0.4-1,0.4-1.4,0c-0.2-0.2-0.3-0.4-0.3-0.7s0.1-0.5,0.3-0.7l2.9-2.9L7.7,9.1C7.5,8.9,7.4,8.7,7.4,8.4c0-0.3,0.1-0.5,0.3-0.7
			c0.4-0.4,1-0.4,1.4,0l2.9,2.9l2.9-2.9c0.4-0.4,1-0.4,1.4,0c0.4,0.4,0.4,1,0,1.4L13.4,12l2.9,2.9C16.7,15.3,16.7,15.9,16.3,16.3z"
			/>
	</g>
</g>
</svg>
