<?xml version="1.0" encoding="utf-8"?>
<!-- Generator: Adobe Illustrator 23.0.1, SVG Export Plug-In . SVG Version: 6.00 Build 0)  -->
<svg version="1.1" id="Layer_1" xmlns="http://www.w3.org/2000/svg" xmlns:xlink="http://www.w3.org/1999/xlink" x="0px"
     y="0px"
     viewBox="0 0 24 24" style="enable-background:new 0 0 24 24;" xml:space="preserve"
>
<g id="Page-1">
	<g id="close">
		<path id="Mask" class="st0" d="M21.7,2.6c-0.6-0.6-1.5-0.6-2.1,0L12.1,10L4.7,2.6C4.1,2,3.2,2,2.6,2.6S2,4.1,2.6,4.7l7.4,7.4
			l-7.4,7.4c-0.6,0.6-0.6,1.5,0,2.1s1.5,0.6,2.1,0l7.4-7.4l7.4,7.4c0.6,0.6,1.5,0.6,2.1,0s0.6-1.5,0-2.1l-7.4-7.4l7.4-7.4
			C22.3,4.1,22.3,3.2,21.7,2.6z"/>
	</g>
</g>
</svg>
