<?xml version="1.0" encoding="UTF-8"?>
<svg width="24px" height="24px" viewBox="0 0 24 24" version="1.1" xmlns="http://www.w3.org/2000/svg" xmlns:xlink="http://www.w3.org/1999/xlink">
    <!-- Generator: Sketch 52.6 (67491) - http://www.bohemiancoding.com/sketch -->
    <title>Icon / Collapse All</title>
    <desc>Created with Sketch.</desc>
    <g id="Icon-/-Collapse-All" stroke="none" stroke-width="1" fill="none" fill-rule="evenodd">
        <path d="M19.0576,13 L4.9426,13 C4.4216,13 3.9996,12.578 3.9996,12.058 L3.9996,11.942 C3.9996,11.422 4.4216,11 4.9426,11 L19.0576,11 C19.5786,11 19.9996,11.422 19.9996,11.942 L19.9996,12.058 C19.9996,12.578 19.5786,13 19.0576,13 Z M14.6641,6 C15.1821,6 15.4561,6.583 15.1121,6.952 L12.4481,9.808 C12.2101,10.064 11.7901,10.064 11.5521,9.808 L8.8881,6.952 C8.5441,6.583 8.8181,6 9.3361,6 L11.0001,6 L11.0001,3 C11.0001,2.447 11.4471,2 12.0001,2 C12.5531,2 13.0001,2.447 13.0001,3 L13.0001,6 L14.6641,6 Z M15.1123,17.0479 C15.4563,17.4169 15.1813,17.9999 14.6643,17.9999 L13.0003,17.9999 L13.0003,20.9999 C13.0003,21.5529 12.5523,21.9999 12.0003,21.9999 C11.4473,21.9999 11.0003,21.5529 11.0003,20.9999 L11.0003,17.9999 L9.3363,17.9999 C8.8183,17.9999 8.5443,17.4169 8.8873,17.0479 L11.5513,14.1919 C11.7903,13.9359 12.2103,13.9359 12.4483,14.1919 L15.1123,17.0479 Z" id="Shape" fill="#000000" fill-rule="nonzero"></path>
    </g>
</svg>