<?xml version="1.0" encoding="UTF-8"?>
<svg width="24px" height="24px" viewBox="0 0 24 24" version="1.1" xmlns="http://www.w3.org/2000/svg" xmlns:xlink="http://www.w3.org/1999/xlink">
    <!-- Generator: Sketch 52.6 (67491) - http://www.bohemiancoding.com/sketch -->
    <title>Icon / Compact</title>
    <desc>Created with Sketch.</desc>
    <g id="Icon-/-Compact" stroke="none" stroke-width="1" fill="none" fill-rule="evenodd">
        <path d="M5,9 L19,9 C19.55,9 20,9.45 20,10 C20,10.55 19.55,11 19,11 L5,11 C4.45,11 4,10.55 4,10 C4,9.45 4.45,9 5,9 Z M5,13 L13,13 C13.55,13 14,13.45 14,14 C14,14.55 13.55,15 13,15 L5,15 C4.45,15 4,14.55 4,14 C4,13.45 4.45,13 5,13 Z" id="Shape" fill="#000000" fill-rule="nonzero"></path>
    </g>
</svg>