<?xml version="1.0" encoding="UTF-8"?>
<svg width="36px" height="40px" viewBox="0 0 36 40" version="1.1" xmlns="http://www.w3.org/2000/svg" xmlns:xlink="http://www.w3.org/1999/xlink">
    <!-- Generator: Sketch 53 (72520) - https://sketchapp.com -->
    <title>File Icon / CSV</title>
    <desc>Created with Sketch.</desc>
    <defs>
        <path d="M5.5,0 L26,0 L32,6 L32,34.5 C32,35.3284271 31.3284271,36 30.5,36 L5.5,36 C4.67157288,36 4,35.3284271 4,34.5 L4,1.5 C4,0.671572875 4.67157288,1.52179594e-16 5.5,0 Z" id="path-1"></path>
        <linearGradient x1="100%" y1="0%" x2="0%" y2="100%" id="linearGradient-3">
            <stop stop-color="#FAFAFA" stop-opacity="0.5" offset="0%"></stop>
            <stop stop-color="#FAFAFA" offset="100%"></stop>
        </linearGradient>
    </defs>
    <g id="File-Icon-/-CSV" stroke="none" stroke-width="1" fill="none" fill-rule="evenodd">
        <mask id="mask-2" fill="white">
            <use xlink:href="#path-1"></use>
        </mask>
        <use id="Page" fill="#FFFFFF" xlink:href="#path-1"></use>
        <rect id="Rectangle" stroke="#C8C6CA" fill-rule="nonzero" mask="url(#mask-2)" x="19.5" y="14.5" width="8" height="4"></rect>
        <rect id="Rectangle" stroke="#C8C6CA" fill-rule="nonzero" mask="url(#mask-2)" x="8.5" y="14.5" width="11" height="4"></rect>
        <rect id="Rectangle" stroke="#C8C6CA" fill-rule="nonzero" mask="url(#mask-2)" x="19.5" y="18.5" width="8" height="4"></rect>
        <rect id="Rectangle" stroke="#C8C6CA" fill-rule="nonzero" mask="url(#mask-2)" x="8.5" y="18.5" width="11" height="4"></rect>
        <rect id="Rectangle" stroke="#C8C6CA" fill-rule="nonzero" mask="url(#mask-2)" x="19.5" y="22.5" width="8" height="4"></rect>
        <rect id="Rectangle" stroke="#C8C6CA" fill-rule="nonzero" mask="url(#mask-2)" x="8.5" y="22.5" width="11" height="4"></rect>
        <rect id="Rectangle" fill="#A6A3A9" fill-rule="nonzero" mask="url(#mask-2)" x="4" y="0" width="28" height="8"></rect>
        <rect id="Corner" fill="url(#linearGradient-3)" mask="url(#mask-2)" x="26" y="0" width="6" height="6"></rect>
    </g>
</svg>