<?xml version="1.0" encoding="UTF-8"?>
<svg width="24px" height="24px" viewBox="0 0 24 24" version="1.1" xmlns="http://www.w3.org/2000/svg" xmlns:xlink="http://www.w3.org/1999/xlink">
    <!-- Generator: Sketch 52.6 (67491) - http://www.bohemiancoding.com/sketch -->
    <title>Icon / Deploy</title>
    <desc>Created with Sketch.</desc>
    <g id="Icon-/-Deploy" stroke="none" stroke-width="1" fill="none" fill-rule="evenodd">
        <path d="M5.93105428,14.5593498 L3.5589,13.8481 C3.2379,13.7521 3.1009,13.3741 3.2849,13.0951 L4.3959,11.4111 C4.4859,11.2731 4.6379,11.1891 4.8029,11.1861 L8.17852411,11.1203316 C10.3710092,8.21368135 13.3091537,5.07237027 14.8674,4.0093 C17.0444,2.5253 19.2414,1.9193 21.5064,2.0083 C21.7644,2.0193 21.9804,2.2353 21.9914,2.4943 C22.0814,4.7583 21.4744,6.9553 19.9904,9.1323 C18.9279877,10.6905971 15.7862398,13.6284026 12.8792806,15.8209478 L12.8135,19.1972 C12.8105,19.3612 12.7265,19.5132 12.5895,19.6042 L10.9055,20.7152 C10.6265,20.8992 10.2475,20.7612 10.1515,20.4412 L9.44015231,18.0687191 C9.409679,18.084212 9.37942638,18.0994074 9.3494,18.1143 C8.0734,18.7473 7.7884,18.8423 6.4724,17.5273 C5.1574,16.2123 5.2524,15.9263 5.8854,14.6503 C5.90031563,14.6202085 5.91553543,14.5898899 5.93105428,14.5593498 Z M7.8283,19.7216 C7.6243,19.9726 6.0703,22.0266 2.5063,21.9996 C2.2403,21.9976 2.0023,21.7596 2.0003,21.4926 C1.9743,17.9296 4.0273,16.3746 4.2783,16.1716 L4.4883,16.5906 C4.4883,16.5906 3.4323,17.9086 3.4183,20.0846 C3.4163,20.3536 3.6463,20.5836 3.9153,20.5816 C6.0923,20.5686 7.4093,19.5116 7.4093,19.5116 L7.8283,19.7216 Z M17.3166,8.975 C17.9546,8.338 17.9546,7.305 17.3166,6.668 C16.6796,6.031 15.6476,6.031 15.0096,6.668 C14.3736,7.305 14.3736,8.338 15.0096,8.975 C15.6476,9.612 16.6796,9.612 17.3166,8.975 Z" id="Combined-Shape" fill="#000000" fill-rule="nonzero"></path>
    </g>
</svg>