<?xml version="1.0" encoding="UTF-8"?>
<svg width="24px" height="24px" viewBox="0 0 24 24" version="1.1" xmlns="http://www.w3.org/2000/svg" xmlns:xlink="http://www.w3.org/1999/xlink">
    <!-- Generator: Sketch 52.6 (67491) - http://www.bohemiancoding.com/sketch -->
    <title>Icon / Donut Graph</title>
    <desc>Created with Sketch.</desc>
    <g id="Icon-/-Donut-Graph" stroke="none" stroke-width="1" fill="none" fill-rule="evenodd">
        <path d="M14.07,4.95479853 C13.44,4.76479853 13,4.19479853 13,3.53479853 L13,3.49479853 C13,2.49479853 13.96,1.77479853 14.9,2.06479853 C18.08,3.03479853 20.59,5.54479853 21.56,8.72479853 C21.85,9.67479853 21.13,10.6347985 20.13,10.6347985 L20.09,10.6347985 C19.44,10.6347985 18.87,10.1947985 18.68,9.56479853 C18,7.37479853 16.26,5.63479853 14.07,4.95479853 Z M18.68,13.7047985 C18.87,13.0747985 19.44,12.6347985 20.1,12.6247985 C20.12,12.6247985 20.13,12.6247985 20.15,12.6247985 C21.14,12.6247985 21.86,13.5847985 21.57,14.5347985 C20.6,17.7147985 18.09,20.2247985 14.91,21.1947985 C13.96,21.4847985 13,20.7647985 13,19.7647985 L13,19.7247985 C13,19.0747985 13.44,18.5047985 14.07,18.3147985 C16.26,17.6347985 18,15.9047985 18.68,13.7047985 Z M11,19.7447985 C11,20.7547985 10.03,21.4947985 9.07,21.1947985 C4.98,19.9447985 2,16.1347985 2,11.6347985 C2,7.13479853 4.98,3.32479853 9.07,2.07479853 C10.03,1.77479853 11,2.51479853 11,3.51479853 L11,3.52479853 C11,4.19479853 10.55,4.76479853 9.91,4.96479853 C7.07,5.85479853 5,8.50479853 5,11.6347985 C5,14.7647985 7.07,17.4147985 9.91,18.3047985 C10.55,18.5047985 11,19.0747985 11,19.7447985 Z" id="Combined-Shape" fill="#000000" fill-rule="nonzero"></path>
    </g>
</svg>