<?xml version="1.0" encoding="UTF-8"?>
<svg width="24px" height="24px" viewBox="0 0 24 24" version="1.1" xmlns="http://www.w3.org/2000/svg" xmlns:xlink="http://www.w3.org/1999/xlink">
    <!-- Generator: Sketch 52.6 (67491) - http://www.bohemiancoding.com/sketch -->
    <title>Icon / Double Arrow</title>
    <desc>Created with Sketch.</desc>
    <g id="Icon-/-Double-Arrow" stroke="none" stroke-width="1" fill="none" fill-rule="evenodd">
        <path d="M22.707,16.1274 L18.128,20.7074 C17.737,21.0974 17.098,21.0974 16.707,20.7074 C16.317,20.3174 16.317,19.6774 16.707,19.2874 L19.588,16.4174 L11.417,16.4174 C10.865,16.4174 10.417,15.9694 10.417,15.4174 C10.417,14.8654 10.865,14.4174 11.417,14.4174 L19.588,14.4174 L16.707,11.5474 C16.317,11.1574 16.317,10.5174 16.707,10.1274 C17.098,9.7374 17.737,9.7374 18.128,10.1274 L22.707,14.7074 C23.098,15.0974 23.098,15.7374 22.707,16.1274 Z M1.2925,9.2925 C0.9025,8.9025 0.9025,8.2625 1.2925,7.8725 L5.8725,3.2925 C6.2625,2.9025 6.9025,2.9025 7.2925,3.2925 C7.6825,3.6825 7.6825,4.3225 7.2925,4.7125 L4.4125,7.5825 L12.5825,7.5825 C13.1345,7.5825 13.5825,8.0305 13.5825,8.5825 C13.5825,9.1345 13.1345,9.5825 12.5825,9.5825 L4.4125,9.5825 L7.2925,12.4525 C7.6825,12.8425 7.6825,13.4825 7.2925,13.8725 C6.9025,14.2625 6.2625,14.2625 5.8725,13.8725 L1.2925,9.2925 Z" id="Combined-Shape" fill="#000000" fill-rule="nonzero"></path>
    </g>
</svg>