<?xml version="1.0" encoding="UTF-8"?>
<svg width="24px" height="24px" viewBox="0 0 24 24" version="1.1" xmlns="http://www.w3.org/2000/svg" xmlns:xlink="http://www.w3.org/1999/xlink">
    <!-- Generator: Sketch 52.6 (67491) - http://www.bohemiancoding.com/sketch -->
    <title>Icon / Expand All</title>
    <desc>Created with Sketch.</desc>
    <g id="Icon-/-Expand-All" stroke="none" stroke-width="1" fill="none" fill-rule="evenodd">
        <path d="M19.0571,13 L4.9431,13 C4.4221,13 4.0001,12.578 4.0001,12.058 L4.0001,11.942 C4.0001,11.422 4.4221,11 4.9431,11 L19.0571,11 C19.5781,11 20.0001,11.422 20.0001,11.942 L20.0001,12.058 C20.0001,12.578 19.5781,13 19.0571,13 Z M15.1123,4.0479 C15.4563,4.4169 15.1813,4.9999 14.6643,4.9999 L13.0003,4.9999 L13.0003,7.9999 C13.0003,8.5529 12.5523,8.9999 12.0003,8.9999 C11.4473,8.9999 11.0003,8.5529 11.0003,7.9999 L11.0003,4.9999 L9.3363,4.9999 C8.8183,4.9999 8.5443,4.4169 8.8873,4.0479 L11.5513,1.1919 C11.7903,0.9359 12.2103,0.9359 12.4483,1.1919 L15.1123,4.0479 Z M14.6641,19 C15.1821,19 15.4561,19.583 15.1121,19.952 L12.4481,22.808 C12.2101,23.064 11.7901,23.064 11.5521,22.808 L8.8881,19.952 C8.5441,19.583 8.8181,19 9.3361,19 L11.0001,19 L11.0001,16 C11.0001,15.447 11.4481,15 12.0001,15 C12.5521,15 13.0001,15.447 13.0001,16 L13.0001,19 L14.6641,19 Z" id="Shape" fill="#000000" fill-rule="nonzero"></path>
    </g>
</svg>