<?xml version="1.0" encoding="UTF-8"?>
<svg width="24px" height="24px" viewBox="0 0 24 24" version="1.1" xmlns="http://www.w3.org/2000/svg" xmlns:xlink="http://www.w3.org/1999/xlink">
    <!-- Generator: Sketch 52.6 (67491) - http://www.bohemiancoding.com/sketch -->
    <title>Icon / Grabber</title>
    <desc>Created with Sketch.</desc>
    <g id="Icon-/-Grabber" stroke="none" stroke-width="1" fill="none" fill-rule="evenodd">
        <path d="M6,9 L18,9 C18.5522847,9 19,9.44771525 19,10 L19,10 C19,10.5522847 18.5522847,11 18,11 L6,11 C5.44771525,11 5,10.5522847 5,10 L5,10 C5,9.44771525 5.44771525,9 6,9 Z M6,14 L18,14 C18.5522847,14 19,14.4477153 19,15 L19,15 C19,15.5522847 18.5522847,16 18,16 L6,16 C5.44771525,16 5,15.5522847 5,15 L5,15 C5,14.4477153 5.44771525,14 6,14 Z" id="Mask" fill="#000000" fill-rule="nonzero"></path>
    </g>
</svg>