<?xml version="1.0" encoding="UTF-8"?>
<svg width="24px" height="24px" viewBox="0 0 24 24" version="1.1" xmlns="http://www.w3.org/2000/svg" xmlns:xlink="http://www.w3.org/1999/xlink">
    <!-- Generator: Sketch 52.6 (67491) - http://www.bohemiancoding.com/sketch -->
    <title>Icon / Hashtag</title>
    <desc>Created with Sketch.</desc>
    <g id="Icon-/-Hashtag" stroke="none" stroke-width="1" fill="none" fill-rule="evenodd">
        <path d="M3,5 C3,3.8954305 3.8954305,3 5,3 L19,3 C20.1045695,3 21,3.8954305 21,5 L21,19 C21,20.1045695 20.1045695,21 19,21 L5,21 C3.89,21 3,20.1 3,19 L3,5 Z M9.07241672,17.5861902 L9.35,16 L13.35,16 L13.1025833,17.4138098 C13.0549818,17.6858185 13.2368997,17.9449137 13.5089083,17.9925152 C13.5373682,17.9974957 13.5662062,18 13.5950985,18 L14.5799015,18 C14.8227913,18 15.0305473,17.825444 15.0724167,17.5861902 L15.35,16 L16.9319646,16 C17.1739397,16 17.3811896,15.8267244 17.4240562,15.5885765 L17.6040562,14.5885765 C17.6529757,14.3168018 17.4723158,14.0568278 17.2005411,14.0079083 C17.1713091,14.0026466 17.1416664,14 17.1119646,14 L15.71,14 L16.41,10 L17.9899015,10 C18.2327913,10 18.4405473,9.82544403 18.4824167,9.58619017 L18.6574167,8.58619017 C18.7050182,8.31418151 18.5231003,8.05508628 18.2510917,8.00748477 C18.2226318,8.00250429 18.1937938,8 18.1649015,8 L16.76,8 L17.0140562,6.5885765 C17.0629757,6.31680178 16.8823158,6.05682779 16.6105411,6.00790834 C16.5813091,6.00264658 16.5516664,6 16.5219646,6 L15.5380354,6 C15.2960603,6 15.0888104,6.17327564 15.0459438,6.4114235 L14.76,8 L10.76,8 L11.0140562,6.5885765 C11.0629757,6.31680178 10.8823158,6.05682779 10.6105411,6.00790834 C10.5813091,6.00264658 10.5516664,6 10.5219646,6 L9.53803543,6 C9.29606033,6 9.08881038,6.17327564 9.04594377,6.4114235 L8.76,8 L7.18009851,8 C6.9372087,8 6.72945271,8.17455597 6.68758328,8.41380983 L6.51258328,9.41380983 C6.46498176,9.68581849 6.64689969,9.94491372 6.91890835,9.99251523 C6.94736819,9.99749571 6.97620617,10 7.00509851,10 L8.41,10 L7.71,14 L6.12803543,14 C5.88606033,14 5.67881038,14.1732756 5.63594377,14.4114235 L5.45594377,15.4114235 C5.40702432,15.6831982 5.58768421,15.9431722 5.85945893,15.9920917 C5.88869093,15.9973534 5.91833365,16 5.94803543,16 L7.35,16 L7.10258328,17.4138098 C7.05498176,17.6858185 7.23689969,17.9449137 7.50890835,17.9925152 C7.53736819,17.9974957 7.56620617,18 7.59509851,18 L8.57990149,18 C8.8227913,18 9.03054729,17.825444 9.07241672,17.5861902 Z M10.41,10 L14.41,10 L13.71,14 L9.71,14 L10.41,10 Z" id="Shape" fill="#000000" fill-rule="nonzero"></path>
    </g>
</svg>