<?xml version="1.0" encoding="UTF-8"?>
<svg width="24px" height="24px" viewBox="0 0 24 24" version="1.1" xmlns="http://www.w3.org/2000/svg" xmlns:xlink="http://www.w3.org/1999/xlink">
    <!-- Generator: Sketch 52.6 (67491) - http://www.bohemiancoding.com/sketch -->
    <title>Icon / If Then</title>
    <desc>Created with Sketch.</desc>
    <g id="Icon-/-If-Then" stroke="none" stroke-width="1" fill="none" fill-rule="evenodd">
        <path d="M15.5857864,15 L18.5857864,12 L15.5857864,9 L4,9 C3.44771525,9 3,8.55228475 3,8 C3,7.44771525 3.44771525,7 4,7 L13.5857864,7 L11.2928932,4.70710678 C10.9023689,4.31658249 10.9023689,3.68341751 11.2928932,3.29289322 C11.6834175,2.90236893 12.3165825,2.90236893 12.7071068,3.29289322 L20.7071068,11.2928932 C21.0976311,11.6834175 21.0976311,12.3165825 20.7071068,12.7071068 L12.7071068,20.7071068 C12.3165825,21.0976311 11.6834175,21.0976311 11.2928932,20.7071068 C10.9023689,20.3165825 10.9023689,19.6834175 11.2928932,19.2928932 L13.5857864,17 L4,17 C3.44771525,17 3,16.5522847 3,16 C3,15.4477153 3.44771525,15 4,15 L15.5857864,15 Z" id="Combined-Shape" fill="#000000" fill-rule="nonzero"></path>
    </g>
</svg>