<?xml version="1.0" encoding="UTF-8"?>
<svg width="24px" height="24px" viewBox="0 0 24 24" version="1.1" xmlns="http://www.w3.org/2000/svg" xmlns:xlink="http://www.w3.org/1999/xlink">
    <!-- Generator: Sketch 52.6 (67491) - http://www.bohemiancoding.com/sketch -->
    <title>Icon / Italic</title>
    <desc>Created with Sketch.</desc>
    <g id="Icon-/-Italic" stroke="none" stroke-width="1" fill="none" fill-rule="evenodd">
        <path d="M10,5.5 C10,6.33 10.67,7 11.5,7 L12.21,7 L8.79,15 L7.5,15 C6.67,15 6,15.67 6,16.5 C6,17.33 6.67,18 7.5,18 L12.5,18 C13.33,18 14,17.33 14,16.5 C14,15.67 13.33,15 12.5,15 L11.79,15 L15.21,7 L16.5,7 C17.33,7 18,6.33 18,5.5 C18,4.67 17.33,4 16.5,4 L11.5,4 C10.67,4 10,4.67 10,5.5 Z" id="Path" fill="#000000" fill-rule="nonzero"></path>
    </g>
</svg>