<?xml version="1.0" encoding="UTF-8"?>
<svg width="24px" height="24px" viewBox="0 0 24 24" version="1.1" xmlns="http://www.w3.org/2000/svg" xmlns:xlink="http://www.w3.org/1999/xlink">
    <!-- Generator: Sketch 52.6 (67491) - http://www.bohemiancoding.com/sketch -->
    <title>Icon / Lock</title>
    <desc>Created with Sketch.</desc>
    <g id="Icon-/-Lock" stroke="none" stroke-width="1" fill="none" fill-rule="evenodd">
        <path d="M18,7 L17,7 L17,5 C17,2.24 14.76,0 12,0 C9.24,0 7,2.24 7,5 L7,7 L6,7 C4.9,7 4,7.9 4,9 L4,19 C4,20.1 4.9,21 6,21 L18,21 C19.1,21 20,20.1 20,19 L20,9 C20,7.9 19.1,7 18,7 Z M12,16 C10.9,16 10,15.1 10,14 C10,12.9 10.9,12 12,12 C13.1,12 14,12.9 14,14 C14,15.1 13.1,16 12,16 Z M15.1,7 L8.9,7 L8.9,5 C8.9,3.29 10.29,1.9 12,1.9 C13.71,1.9 15.1,3.29 15.1,5 L15.1,7 Z" id="Shape" fill="#000000" fill-rule="nonzero"></path>
    </g>
</svg>