<?xml version="1.0" encoding="UTF-8"?>
<svg width="24px" height="24px" viewBox="0 0 24 24" version="1.1" xmlns="http://www.w3.org/2000/svg" xmlns:xlink="http://www.w3.org/1999/xlink">
    <!-- Generator: Sketch 52.6 (67491) - http://www.bohemiancoding.com/sketch -->
    <title>Icon / Medical</title>
    <desc>Created with Sketch.</desc>
    <g id="Icon-/-Medical" stroke="none" stroke-width="1" fill="none" fill-rule="evenodd">
        <path d="M20,9 C20,9.55228475 19.5522847,10 19,10 C18.43,10 18,9.55 18,9 C18,8.43 18.43,8 19,8 C19.56,8 20,8.43 20,9 Z M2,4 L2,11 C2,13.96 4.19,16.5 7.14,16.91 C7.76,19.92 10.42,22 13.5,22 C15.2239072,22 16.8772076,21.3151805 18.0961941,20.0961941 C19.3151805,18.8772076 20,17.2239072 20,15.5 L20,11.81 C21.16,11.39 22,10.29 22,9 C22,7.34314575 20.6568542,6 19,6 C17.3431458,6 16,7.34314575 16,9 C16,10.29 16.84,11.4 18,11.81 L18,15.41 C18,17.91 16,19.91 13.5,19.91 C11.5,19.91 9.82,18.7 9.22,16.9 C12,16.3 14,13.8 14,11 L14,4 C14,2.8954305 13.1045695,2 12,2 L11,2 C10.4477153,2 10,2.44771525 10,3 L10,4 C10,4.55228475 10.4477153,5 11,5 L11,5 C11.5522847,5 12,5.44771525 12,6 L12,11 C12,13.209139 10.209139,15 8,15 C5.790861,15 4,13.209139 4,11 L4,6 C4,5.44771525 4.44771525,5 5,5 L5,5 C5.55228475,5 6,4.55228475 6,4 L6,3 C6,2.44771525 5.55228475,2 5,2 L4,2 C2.8954305,2 2,2.8954305 2,4 Z" id="Shape" fill="#000000" fill-rule="nonzero"></path>
    </g>
</svg>