<?xml version="1.0" encoding="UTF-8"?>
<svg width="24px" height="24px" viewBox="0 0 24 24" version="1.1" xmlns="http://www.w3.org/2000/svg" xmlns:xlink="http://www.w3.org/1999/xlink">
    <!-- Generator: Sketch 52.6 (67491) - http://www.bohemiancoding.com/sketch -->
    <title>Icon / Notification</title>
    <desc>Created with Sketch.</desc>
    <g id="Icon-/-Notification" stroke="none" stroke-width="1" fill="none" fill-rule="evenodd">
        <path d="M11.5864772,24 C12.6864772,24 13.5764772,23.11 13.5764772,22.01 L9.59647719,22.01 C9.59647719,23.11 10.4864772,24 11.5864772,24 Z M19.8764772,19.29 L18.5864772,18 L18.5864772,12 C18.5864772,8.65 16.2264772,5.85 13.0864772,5.17 L13.0864772,4 C13.0864772,3.17 12.4164772,2.5 11.5864772,2.5 C10.7564772,2.5 10.0864772,3.17 10.0864772,4 L10.0864772,5.17 C6.94647719,5.85 4.58647719,8.65 4.58647719,12 L4.58647719,18 L3.29647719,19.29 C2.66647719,19.92 3.10647719,21 3.99647719,21 L19.1664772,21 C20.0664772,21 20.5064772,19.92 19.8764772,19.29 Z M12.5864772,17 L10.5864772,17 L10.5864772,15 L12.5864772,15 L12.5864772,17 Z M12.5864772,12 C12.5864772,12.55 12.1364772,13 11.5864772,13 C11.0364772,13 10.5864772,12.55 10.5864772,12 L10.5864772,10 C10.5864772,9.45 11.0364772,9 11.5864772,9 C12.1364772,9 12.5864772,9.45 12.5864772,10 L12.5864772,12 Z" id="Shape" fill="#000000" fill-rule="nonzero"></path>
    </g>
</svg>