<?xml version="1.0" encoding="UTF-8"?>
<svg width="36px" height="40px" viewBox="0 0 36 40" version="1.1" xmlns="http://www.w3.org/2000/svg" xmlns:xlink="http://www.w3.org/1999/xlink">
    <!-- Generator: Sketch 53 (72520) - https://sketchapp.com -->
    <title>File Icon / PDF</title>
    <desc>Created with Sketch.</desc>
    <defs>
        <path d="M5.5,0 L26,0 L32,6 L32,34.5 C32,35.3284271 31.3284271,36 30.5,36 L5.5,36 C4.67157288,36 4,35.3284271 4,34.5 L4,1.5 C4,0.671572875 4.67157288,1.52179594e-16 5.5,0 Z" id="path-1"></path>
        <path d="M5.14032,0 C5.11146667,0.000106666667 5.08261333,0.00144 5.05354667,0.00394666667 L5.05354667,0.00394666667 C4.27344,-0.00965333333 3.60010667,0.76624 3.76512,1.54138667 L3.76512,1.54138667 C3.87610667,2.72592 4.63989333,3.68714667 5.23589333,4.66528 L5.23589333,4.66528 C5.30288,5.02938667 5.11077333,5.38410667 5.09797333,5.74570667 L5.09797333,5.74570667 C4.70938667,7.86853333 4.11658667,9.98010667 3.20448,11.9284267 L3.20448,11.9284267 C2.07589333,12.448 0.797973333,12.9610667 0.13792,14.0808533 L0.13792,14.0808533 C-0.281013333,14.8578133 0.308853333,15.9064 1.17477333,15.98832 L1.17477333,15.98832 C1.97808,16.0981867 2.57434667,15.4098133 3.01344,14.8330133 L3.01344,14.8330133 C3.472,14.2125867 3.77365333,13.4738133 4.15514667,12.8069867 L4.15514667,12.8069867 C6.46421333,11.8771733 8.8928,11.2273067 11.3723733,10.98064 L11.3723733,10.98064 C12.3749333,11.6981867 13.4372267,12.5446933 14.7226667,12.59584 L14.7226667,12.59584 C15.4699733,12.5846933 16.07456,11.8593067 15.99248,11.12256 L15.99248,11.12256 C15.9444267,10.4517867 15.3484267,9.98138667 14.7310933,9.85541333 L14.7310933,9.85541333 C13.7354667,9.55552 12.6690133,9.71973333 11.6560533,9.72704 L11.6560533,9.72704 C9.70709333,8.16965333 7.90768,6.37781333 6.49056,4.32741333 L6.49056,4.32741333 C6.59578667,3.08096 6.80698667,1.70218667 6.15792,0.568266667 L6.15792,0.568266667 C5.92944,0.236693333 5.55370667,0.00186666667 5.14922667,0 L5.14922667,0 L5.14032,0 Z M4.89312,1.18154667 C4.96202667,1.17882667 5.02298667,1.14394667 5.09066667,1.13589333 L5.09066667,1.13589333 C5.31013333,1.17824 5.32474667,1.50506667 5.38618667,1.67994667 L5.38618667,1.67994667 C5.444,2.03616 5.43770667,2.39973333 5.43349333,2.75952 L5.43349333,2.75952 C5.17216,2.27098667 4.83264,1.76074667 4.89312,1.18154667 L4.89312,1.18154667 Z M6.22544,5.90709333 L6.29973333,5.99658667 C7.46133333,7.44085333 8.75168,8.77088 10.1599467,9.97712 L10.1599467,9.97712 C8.30325333,10.2602667 6.45856,10.7346133 4.69216,11.3743467 L4.69216,11.3743467 C5.36965333,9.60352 5.88554667,7.77408 6.22544,5.90709333 L6.22544,5.90709333 Z M14.3849067,11.3996267 C14.00416,11.2725867 13.6274667,11.11264 13.3042133,10.8691733 L13.3042133,10.8691733 C13.3847467,10.86416 13.4650133,10.8538133 13.5457067,10.8522133 L13.5457067,10.8522133 C13.9960533,10.89568 14.5159467,10.8695467 14.8763733,11.18 L14.8763733,11.18 C14.8993067,11.3701867 14.7487467,11.45008 14.5925867,11.4501333 L14.5925867,11.4501333 C14.51872,11.4501333 14.4435733,11.4322133 14.3849067,11.3996267 L14.3849067,11.3996267 Z M1.17141333,14.5691733 C1.45349333,14.1276267 1.94592,13.8934933 2.38208,13.6298133 L2.38208,13.6298133 C2.35173333,13.6861333 2.32133333,13.7424533 2.29093333,13.7987733 L2.29093333,13.7987733 C2.07674667,14.1970667 1.76501333,14.57264 1.43984,14.8546667 L1.43984,14.8546667 C1.41776,14.8904 1.38778667,14.9053867 1.35530667,14.9053867 L1.35530667,14.9053867 C1.22853333,14.90544 1.06266667,14.6780267 1.17141333,14.5691733 L1.17141333,14.5691733 Z" id="path-3"></path>
        <linearGradient x1="100%" y1="0%" x2="0%" y2="100%" id="linearGradient-5">
            <stop stop-color="#FAFAFA" stop-opacity="0.5" offset="0%"></stop>
            <stop stop-color="#FAFAFA" offset="100%"></stop>
        </linearGradient>
    </defs>
    <g id="File-Icon-/-PDF" stroke="none" stroke-width="1" fill="none" fill-rule="evenodd">
        <mask id="mask-2" fill="white">
            <use xlink:href="#path-1"></use>
        </mask>
        <use id="Page" fill="#FFFFFF" xlink:href="#path-1"></use>
        <g id="Group-3" mask="url(#mask-2)">
            <g transform="translate(10.000000, 13.000000)">
                <mask id="mask-4" fill="white">
                    <use xlink:href="#path-3"></use>
                </mask>
                <g id="Clip-2" stroke="none" fill="none"></g>
                <path d="M5.14032,0 C5.11146667,0.000106666667 5.08261333,0.00144 5.05354667,0.00394666667 L5.05354667,0.00394666667 C4.27344,-0.00965333333 3.60010667,0.76624 3.76512,1.54138667 L3.76512,1.54138667 C3.87610667,2.72592 4.63989333,3.68714667 5.23589333,4.66528 L5.23589333,4.66528 C5.30288,5.02938667 5.11077333,5.38410667 5.09797333,5.74570667 L5.09797333,5.74570667 C4.70938667,7.86853333 4.11658667,9.98010667 3.20448,11.9284267 L3.20448,11.9284267 C2.07589333,12.448 0.797973333,12.9610667 0.13792,14.0808533 L0.13792,14.0808533 C-0.281013333,14.8578133 0.308853333,15.9064 1.17477333,15.98832 L1.17477333,15.98832 C1.97808,16.0981867 2.57434667,15.4098133 3.01344,14.8330133 L3.01344,14.8330133 C3.472,14.2125867 3.77365333,13.4738133 4.15514667,12.8069867 L4.15514667,12.8069867 C6.46421333,11.8771733 8.8928,11.2273067 11.3723733,10.98064 L11.3723733,10.98064 C12.3749333,11.6981867 13.4372267,12.5446933 14.7226667,12.59584 L14.7226667,12.59584 C15.4699733,12.5846933 16.07456,11.8593067 15.99248,11.12256 L15.99248,11.12256 C15.9444267,10.4517867 15.3484267,9.98138667 14.7310933,9.85541333 L14.7310933,9.85541333 C13.7354667,9.55552 12.6690133,9.71973333 11.6560533,9.72704 L11.6560533,9.72704 C9.70709333,8.16965333 7.90768,6.37781333 6.49056,4.32741333 L6.49056,4.32741333 C6.59578667,3.08096 6.80698667,1.70218667 6.15792,0.568266667 L6.15792,0.568266667 C5.92944,0.236693333 5.55370667,0.00186666667 5.14922667,0 L5.14922667,0 L5.14032,0 Z M4.89312,1.18154667 C4.96202667,1.17882667 5.02298667,1.14394667 5.09066667,1.13589333 L5.09066667,1.13589333 C5.31013333,1.17824 5.32474667,1.50506667 5.38618667,1.67994667 L5.38618667,1.67994667 C5.444,2.03616 5.43770667,2.39973333 5.43349333,2.75952 L5.43349333,2.75952 C5.17216,2.27098667 4.83264,1.76074667 4.89312,1.18154667 L4.89312,1.18154667 Z M6.22544,5.90709333 L6.29973333,5.99658667 C7.46133333,7.44085333 8.75168,8.77088 10.1599467,9.97712 L10.1599467,9.97712 C8.30325333,10.2602667 6.45856,10.7346133 4.69216,11.3743467 L4.69216,11.3743467 C5.36965333,9.60352 5.88554667,7.77408 6.22544,5.90709333 L6.22544,5.90709333 Z M14.3849067,11.3996267 C14.00416,11.2725867 13.6274667,11.11264 13.3042133,10.8691733 L13.3042133,10.8691733 C13.3847467,10.86416 13.4650133,10.8538133 13.5457067,10.8522133 L13.5457067,10.8522133 C13.9960533,10.89568 14.5159467,10.8695467 14.8763733,11.18 L14.8763733,11.18 C14.8993067,11.3701867 14.7487467,11.45008 14.5925867,11.4501333 L14.5925867,11.4501333 C14.51872,11.4501333 14.4435733,11.4322133 14.3849067,11.3996267 L14.3849067,11.3996267 Z M1.17141333,14.5691733 C1.45349333,14.1276267 1.94592,13.8934933 2.38208,13.6298133 L2.38208,13.6298133 C2.35173333,13.6861333 2.32133333,13.7424533 2.29093333,13.7987733 L2.29093333,13.7987733 C2.07674667,14.1970667 1.76501333,14.57264 1.43984,14.8546667 L1.43984,14.8546667 C1.41776,14.8904 1.38778667,14.9053867 1.35530667,14.9053867 L1.35530667,14.9053867 C1.22853333,14.90544 1.06266667,14.6780267 1.17141333,14.5691733 L1.17141333,14.5691733 Z" id="Fill-1" stroke="none" fill="#E65C6C" fill-rule="nonzero" mask="url(#mask-4)"></path>
            </g>
        </g>
        <rect id="Rectangle" fill="#E65C6C" fill-rule="nonzero" mask="url(#mask-2)" x="4" y="0" width="28" height="8"></rect>
        <rect id="Corner" fill="url(#linearGradient-5)" mask="url(#mask-2)" x="26" y="0" width="6" height="6"></rect>
    </g>
</svg>