<?xml version="1.0" encoding="UTF-8"?>
<svg width="24px" height="24px" viewBox="0 0 24 24" version="1.1" xmlns="http://www.w3.org/2000/svg" xmlns:xlink="http://www.w3.org/1999/xlink">
    <!-- Generator: Sketch 52.6 (67491) - http://www.bohemiancoding.com/sketch -->
    <title>Icon / Power</title>
    <desc>Created with Sketch.</desc>
    <g id="Icon-/-Power" stroke="none" stroke-width="1" fill="none" fill-rule="evenodd">
        <path d="M12.0035926,3 C11.4535926,3 11.0035926,3.45 11.0035926,4 L11.0035926,12 C11.0035926,12.55 11.4535926,13 12.0035926,13 C12.5535926,13 13.0035926,12.55 13.0035926,12 L13.0035926,4 C13.0035926,3.45 12.5535926,3 12.0035926,3 Z M17.1435926,5.86 C16.7535926,6.25 16.7635926,6.86 17.1335926,7.25 C18.2635926,8.45 18.9635926,10.05 19.0035926,11.82 C19.0935926,15.65 15.9235926,18.95 12.0935926,18.99 C8.18359261,19.05 5.00359261,15.9 5.00359261,12 C5.00359261,10.16 5.71359261,8.49 6.87359261,7.24 C7.24359261,6.85 7.24359261,6.24 6.86359261,5.86 C6.46359261,5.46 5.81359261,5.47 5.43359261,5.88 C3.98359261,7.42 3.07359261,9.47 3.00359261,11.74 C2.86359261,16.62 6.83359261,20.84 11.7135926,20.99 C16.8135926,21.15 21.0035926,17.06 21.0035926,11.99 C21.0035926,9.62 20.0835926,7.48 18.5835926,5.88 C18.2035926,5.47 17.5435926,5.46 17.1435926,5.86 Z" id="Shape" fill="#000000" fill-rule="nonzero"></path>
    </g>
</svg>