<?xml version="1.0" encoding="UTF-8"?>
<svg width="24px" height="24px" viewBox="0 0 24 24" version="1.1" xmlns="http://www.w3.org/2000/svg" xmlns:xlink="http://www.w3.org/1999/xlink">
    <!-- Generator: Sketch 52.6 (67491) - http://www.bohemiancoding.com/sketch -->
    <title>Icon / Redo</title>
    <desc>Created with Sketch.</desc>
    <g id="Icon-/-Redo" stroke="none" stroke-width="1" fill="none" fill-rule="evenodd">
        <path d="M12.43,8 C9.78,8 7.38,8.99 5.53,10.6 L3.64,8.71 C3.01,8.08 1.93,8.52 1.93,9.41 L1.93,15 C1.93,15.55 2.38,16 2.93,16 L8.52,16 C9.41,16 9.86,14.92 9.23,14.29 L7.32,12.38 C8.71,11.22 10.48,10.5 12.44,10.5 C15.6,10.5 18.33,12.34 19.63,15 C19.9,15.56 20.54,15.84 21.13,15.64 C21.84,15.41 22.2,14.6 21.88,13.92 C20.16,10.42 16.58,8 12.43,8 Z" id="Path" fill="#000000" fill-rule="nonzero" transform="translate(11.963828, 12.000000) scale(-1, 1) translate(-11.963828, -12.000000) "></path>
    </g>
</svg>