<?xml version="1.0" encoding="UTF-8"?>
<svg width="24px" height="24px" viewBox="0 0 24 24" version="1.1" xmlns="http://www.w3.org/2000/svg" xmlns:xlink="http://www.w3.org/1999/xlink">
    <!-- Generator: Sketch 52.6 (67491) - http://www.bohemiancoding.com/sketch -->
    <title>Icon / Refresh</title>
    <desc>Created with Sketch.</desc>
    <g id="Icon-/-Refresh" stroke="none" stroke-width="1" fill="none" fill-rule="evenodd">
        <path d="M17.65,6.35 C16.02,4.72 13.71,3.78 11.17,4.04 C7.5,4.41 4.48,7.39 4.07,11.06 C3.52,15.91 7.27,20 12,20 C15.19,20 17.93,18.13 19.21,15.44 C19.53,14.77 19.05,14 18.31,14 C17.94,14 17.59,14.2 17.43,14.53 C16.3,16.96 13.59,18.5 10.63,17.84 C8.41,17.35 6.62,15.54 6.15,13.32 C5.31,9.44 8.26,6 12,6 C13.66,6 15.14,6.69 16.22,7.78 L14.71,9.29 C14.08,9.92 14.52,11 15.41,11 L19,11 C19.55,11 20,10.55 20,10 L20,6.41 C20,5.52 18.92,5.07 18.29,5.7 L17.65,6.35 Z" id="Path" fill="#000000"></path>
    </g>
</svg>