<?xml version="1.0" encoding="UTF-8"?>
<svg width="24px" height="24px" viewBox="0 0 24 24" version="1.1" xmlns="http://www.w3.org/2000/svg" xmlns:xlink="http://www.w3.org/1999/xlink">
    <!-- Generator: Sketch 52.6 (67491) - http://www.bohemiancoding.com/sketch -->
    <title>Icon / Repair</title>
    <desc>Created with Sketch.</desc>
    <g id="Icon-/-Repair" stroke="none" stroke-width="1" fill="none" fill-rule="evenodd">
        <path d="M12.0887827,2.89628241 C10.0787827,0.886282411 7.06878271,0.476282411 4.64878271,1.65628241 L8.27878271,5.28628241 C8.66878271,5.67628241 8.66878271,6.30628241 8.27878271,6.69628241 L6.68878271,8.28628241 C6.29878271,8.68628241 5.66878271,8.68628241 5.27878271,8.28628241 L1.64878271,4.65628241 C0.478782715,7.08628241 0.888782715,10.0762824 2.89878271,12.0862824 C4.75878271,13.9462824 7.47878271,14.4362824 9.78878271,13.5662824 L17.7487827,21.5262824 C18.7787827,22.5562824 20.4387827,22.5562824 21.4587827,21.5262824 C22.4887827,20.4962824 22.4887827,18.8362824 21.4587827,17.8162824 L13.5387827,9.88628241 C14.4587827,7.54628241 13.9787827,4.78628241 12.0887827,2.89628241 Z" id="Path" fill="#000000" fill-rule="nonzero"></path>
    </g>
</svg>