<?xml version="1.0" encoding="UTF-8"?>
<svg width="24px" height="24px" viewBox="0 0 24 24" version="1.1" xmlns="http://www.w3.org/2000/svg" xmlns:xlink="http://www.w3.org/1999/xlink">
    <!-- Generator: Sketch 52.6 (67491) - http://www.bohemiancoding.com/sketch -->
    <title>Icon / Report</title>
    <desc>Created with Sketch.</desc>
    <g id="Icon-/-Report" stroke="none" stroke-width="1" fill="none" fill-rule="evenodd">
        <path d="M14.59,2.59 L19.41,7.42 C19.79,7.79 20,8.3 20,8.83 L20,20 C20,21.1 19.1,22 18,22 L5.99,22 C4.89,22 4,21.1 4,20 L4,4 C4,2.9 4.9,2 6,2 L13.17,2 C13.7,2 14.21,2.21 14.59,2.59 Z M13,8 C13,8.55 13.45,9 14,9 L18.5,9 L13,3.5 L13,8 Z M9,19 L9,15 C9,14.4477153 8.55228475,14 8,14 L8,14 C7.44771525,14 7,14.4477153 7,15 L7,19 C7,19.5522847 7.44771525,20 8,20 L8,20 C8.55228475,20 9,19.5522847 9,19 Z M13,19 L13,13 C13,12.4477153 12.5522847,12 12,12 L12,12 C11.4477153,12 11,12.4477153 11,13 L11,19 C11,19.5522847 11.4477153,20 12,20 L12,20 C12.5522847,20 13,19.5522847 13,19 Z M16,20 L16,20 C16.5522847,20 17,19.5522847 17,19 L17,17 C17,16.4477153 16.5522847,16 16,16 L16,16 C15.4477153,16 15,16.4477153 15,17 L15,19 C15,19.5522847 15.4477153,20 16,20 Z" id="Shape" fill="#000000" fill-rule="nonzero"></path>
    </g>
</svg>