<?xml version="1.0" encoding="UTF-8"?>
<svg width="24px" height="24px" viewBox="0 0 24 24" version="1.1" xmlns="http://www.w3.org/2000/svg" xmlns:xlink="http://www.w3.org/1999/xlink">
    <!-- Generator: Sketch 52.6 (67491) - http://www.bohemiancoding.com/sketch -->
    <title>Icon / Toggle / Round Checked</title>
    <desc>Created with Sketch.</desc>
    <g id="Icon-/-Toggle-/-Round-Checked" stroke="none" stroke-width="1" fill="none" fill-rule="evenodd">
        <path d="M12,21 C7.0275,21 3,16.9725 3,12 C3,7.0275 7.0275,3 12,3 C16.9725,3 21,7.0275 21,12 C21,16.9725 16.9725,21 12,21 Z M9.29,16.29 C9.68,16.68 10.32,16.68 10.7,16.29 L18.29,8.7 C18.68,8.31 18.68,7.68 18.29,7.29 C17.9,6.9 17.27,6.9 16.88,7.29 L10,14.17 L7.11,11.29 C6.72,10.9 6.09,10.9 5.7,11.29 C5.51274733,11.4768315 5.40751439,11.7304824 5.40751439,11.995 C5.40751439,12.2595176 5.51274733,12.5131685 5.7,12.7 L9.29,16.29 Z" id="Combined-Shape" fill="#000000" fill-rule="nonzero"></path>
    </g>
</svg>