<?xml version="1.0" encoding="UTF-8"?>
<svg width="24px" height="24px" viewBox="0 0 24 24" version="1.1" xmlns="http://www.w3.org/2000/svg" xmlns:xlink="http://www.w3.org/1999/xlink">
    <!-- Generator: Sketch 52.6 (67491) - http://www.bohemiancoding.com/sketch -->
    <title>Icon / String</title>
    <desc>Created with Sketch.</desc>
    <g id="Icon-/-String" stroke="none" stroke-width="1" fill="none" fill-rule="evenodd">
        <path d="M7.17,17 C7.68,17 8.15,16.71 8.37,16.26 L9.79,13.42 C9.93,13.14 10,12.84 10,12.53 L10,8 C10,7.45 9.55,7 9,7 L5,7 C4.45,7 4,7.45 4,8 L4,12 C4,12.55 4.45,13 5,13 L7,13 L5.97,15.06 C5.52,15.95 6.17,17 7.17,17 Z M17.17,17 C17.68,17 18.15,16.71 18.37,16.26 L19.79,13.42 C19.93,13.14 20,12.84 20,12.53 L20,8 C20,7.45 19.55,7 19,7 L15,7 C14.45,7 14,7.45 14,8 L14,12 C14,12.55 14.45,13 15,13 L17,13 L15.97,15.06 C15.52,15.95 16.17,17 17.17,17 Z" id="Shape" fill="#000000" fill-rule="nonzero"></path>
    </g>
</svg>