<?xml version="1.0" encoding="UTF-8"?>
<svg width="24px" height="24px" viewBox="0 0 24 24" version="1.1" xmlns="http://www.w3.org/2000/svg" xmlns:xlink="http://www.w3.org/1999/xlink">
    <!-- Generator: Sketch 52.6 (67491) - http://www.bohemiancoding.com/sketch -->
    <title>Icon / Task</title>
    <desc>Created with Sketch.</desc>
    <g id="Icon-/-Task" stroke="none" stroke-width="1" fill="none" fill-rule="evenodd">
        <path d="M15,11 C15.55,11 16,11.45 16,12 C16,12.55 15.55,13 15,13 L11,13 C10.45,13 10,12.55 10,12 C10,11.45 10.45,11 11,11 L15,11 Z M15,7 C15.55,7 16,7.45 16,8 C16,8.55 15.55,9 15,9 L11,9 C10.45,9 10,8.55 10,8 C10,7.45 10.45,7 11,7 L15,7 Z M4,19 L11.182,19 L13.182,21 L3,21 C2.45,21 2,20.55 2,20 L2,4 C2,3.45 2.45,3 3,3 L19,3 C19.55,3 20,3.45 20,4 L20,11.339 C19.773,11.472 19.561,11.622 19.384,11.808 L18,13.194 L18,5 L4,5 L4,19 Z M6,17 L6,15 L8,15 L8,17 L6,17 Z M6,9 L6,7 L8,7 L8,9 L6,9 Z M6,13 L6,11 L8,11 L8,13 L6,13 Z M22.2998,13.2998 C22.6898,13.6898 22.6898,14.3198 22.2998,14.7098 L16.7198,20.2998 C16.3298,20.6898 15.6998,20.6898 15.3098,20.2998 L12.2198,17.2098 C11.8298,16.8198 11.8298,16.1898 12.2198,15.7998 L12.3098,15.7098 C12.6998,15.3198 13.3298,15.3198 13.7198,15.7098 L16.0198,18.0098 L20.7998,13.2198 C21.1798,12.8198 21.8198,12.8198 22.2098,13.2098 L22.2998,13.2998 Z" id="Combined-Shape" fill="#000000" fill-rule="nonzero"></path>
    </g>
</svg>