<?xml version="1.0" encoding="UTF-8"?>
<svg width="24px" height="24px" viewBox="0 0 24 24" version="1.1" xmlns="http://www.w3.org/2000/svg" xmlns:xlink="http://www.w3.org/1999/xlink">
    <!-- Generator: Sketch 52.6 (67491) - http://www.bohemiancoding.com/sketch -->
    <title>Icon / Team</title>
    <desc>Created with Sketch.</desc>
    <g id="Icon-/-Team" stroke="none" stroke-width="1" fill="none" fill-rule="evenodd">
        <path d="M19.4951292,14.1516539 C21.1332062,14.4529481 23.0001,15.2022968 23.0001,16.3997 L23.0001,17.1997 C23.0001,17.6397 22.6251,17.9997 22.1667667,17.9997 L19.8288392,17.9997 C19.9396661,17.6868901 20,17.3503765 20,17 L20,16 C20,15.3143176 19.8176968,14.697953 19.4951292,14.1516539 Z M4.50497083,14.1516539 C4.18240316,14.697953 4.0001,15.3143176 4.0001,16 L4.0001,17 C4.0001,17.3503765 4.06043387,17.6868901 4.17126078,17.9997 L1.83333333,17.9997 C1.375,17.9997 1,17.6397 1,17.1997 L1,16.3997 C1,15.2022968 2.86689381,14.4529481 4.50497083,14.1516539 Z M12,13 C14,13 18,14 18,16 L18,17 C18,17.55 17.55,18 17,18 L7,18 C6.45,18 6,17.55 6,17 L6,16 C6,14 10,13 12,13 Z M18.0001,7.1697 C17.6301,7.1697 17.2801,7.2497 16.9601,7.3997 C17.0001,7.5997 17.0001,7.7997 17.0001,7.9997 C17.0001,9.1497 16.5801,10.1797 15.9101,11.0297 C16.3501,11.7097 17.1201,12.1697 18.0001,12.1697 C19.3811,12.1697 20.5001,11.0507 20.5001,9.6697 C20.5001,8.2887 19.3811,7.1697 18.0001,7.1697 M6.0001,7.1697 C4.6191,7.1697 3.5001,8.2887 3.5001,9.6697 C3.5001,11.0507 4.6191,12.1697 6.0001,12.1697 C6.8801,12.1697 7.6501,11.7097 8.0901,11.0297 C7.4201,10.1797 7.0001,9.1497 7.0001,7.9997 C7.0001,7.7997 7.0001,7.5997 7.0401,7.3997 C6.7201,7.2497 6.3701,7.1697 6.0001,7.1697 M12.0001,4.9997 C10.3431,4.9997 9.0001,6.3437 9.0001,7.9997 C9.0001,9.6567 10.3431,10.9997 12.0001,10.9997 C13.6571,10.9997 15.0001,9.6567 15.0001,7.9997 C15.0001,6.3437 13.6571,4.9997 12.0001,4.9997" id="Fill-1" fill="#000000" fill-rule="nonzero"></path>
    </g>
</svg>