<?xml version="1.0" encoding="UTF-8"?>
<svg width="24px" height="24px" viewBox="0 0 24 24" version="1.1" xmlns="http://www.w3.org/2000/svg" xmlns:xlink="http://www.w3.org/1999/xlink">
    <!-- Generator: Sketch 52.6 (67491) - http://www.bohemiancoding.com/sketch -->
    <title>Icon / Text Format (serif)</title>
    <desc>Created with Sketch.</desc>
    <g id="Icon-/-Text-Format-(serif)" stroke="none" stroke-width="1" fill="none" fill-rule="evenodd">
        <path d="M18.5,4 L19.66,8.35 L18.7,8.61 C18.25,7.74 17.79,6.87 17.26,6.43 C16.73,6 16.11,6 15.5,6 L13,6 L13,16.5 C13,17 13,17.5 13.33,17.75 C13.67,18 14.33,18 15,18 L15,19 L9,19 L9,18 C9.67,18 10.33,18 10.67,17.75 C11,17.5 11,17 11,16.5 L11,6 L8.5,6 C7.89,6 7.27,6 6.74,6.43 C6.21,6.87 5.75,7.74 5.3,8.61 L4.34,8.35 L5.5,4 L18.5,4 Z" id="Path" fill="#000000" fill-rule="nonzero"></path>
    </g>
</svg>