<?xml version="1.0" encoding="UTF-8"?>
<svg width="24px" height="24px" viewBox="0 0 24 24" version="1.1" xmlns="http://www.w3.org/2000/svg" xmlns:xlink="http://www.w3.org/1999/xlink">
    <!-- Generator: Sketch 52.6 (67491) - http://www.bohemiancoding.com/sketch -->
    <title>Icon / Thumbs Up</title>
    <desc>Created with Sketch.</desc>
    <g id="Icon-/-Thumbs-Up" stroke="none" stroke-width="1" fill="none" fill-rule="evenodd">
        <path d="M3,21.383758 C1.9,21.383758 1,20.483758 1,19.383758 L1,11.383758 C1,10.283758 1.9,9.38375801 3,9.38375801 C4.1,9.38375801 5,10.283758 5,11.383758 L5,19.383758 C5,20.483758 4.1,21.383758 3,21.383758 Z M13.12,2.44375801 C13.7,1.85375801 14.64,1.85375801 15.23,2.43375801 C15.59,2.79375801 15.74,3.30375801 15.64,3.80375801 L14.69,8.38375801 L20.34,8.38375801 C22.49,8.38375801 23.94,10.583758 23.1,12.563758 L19.84,20.173758 C19.52,20.903758 18.8,21.383758 18,21.383758 L9,21.383758 C7.9,21.383758 7,20.483758 7,19.383758 L7,9.39375801 C7,8.86375801 7.21,8.35375801 7.58,7.98375801 L13.12,2.44375801 Z" id="Mask" fill="#000000" fill-rule="nonzero"></path>
    </g>
</svg>