<?xml version="1.0" encoding="UTF-8"?>
<svg width="24px" height="24px" viewBox="0 0 24 24" version="1.1" xmlns="http://www.w3.org/2000/svg" xmlns:xlink="http://www.w3.org/1999/xlink">
    <!-- Generator: Sketch 52.6 (67491) - http://www.bohemiancoding.com/sketch -->
    <title>Icon / Timer</title>
    <desc>Created with Sketch.</desc>
    <g id="Icon-/-Timer" stroke="none" stroke-width="1" fill="none" fill-rule="evenodd">
        <path d="M14.0030299,1 L10.0030299,1 C9.45302986,1 9.00302986,1.45 9.00302986,2 C9.00302986,2.55 9.45302986,3 10.0030299,3 L14.0030299,3 C14.5530299,3 15.0030299,2.55 15.0030299,2 C15.0030299,1.45 14.5530299,1 14.0030299,1 Z M12.0030299,14 C12.5530299,14 13.0030299,13.55 13.0030299,13 L13.0030299,9 C13.0030299,8.45 12.5530299,8 12.0030299,8 C11.4530299,8 11.0030299,8.45 11.0030299,9 L11.0030299,13 C11.0030299,13.55 11.4530299,14 12.0030299,14 Z M19.0330299,7.39 L19.7830299,6.64 C20.1630299,6.26 20.1730299,5.63 19.7830299,5.24 L19.7730299,5.23 C19.3830299,4.84 18.7630299,4.85 18.3730299,5.23 L17.6230299,5.98 C16.0730299,4.74 14.1230299,4 12.0030299,4 C7.20302986,4 3.12302986,7.96 3.00302986,12.76 C2.87302986,17.84 6.94302986,22 12.0030299,22 C16.9830299,22 21.0030299,17.97 21.0030299,13 C21.0030299,10.88 20.2630299,8.93 19.0330299,7.39 Z M12.0030299,20 C8.13302986,20 5.00302986,16.87 5.00302986,13 C5.00302986,9.13 8.13302986,6 12.0030299,6 C15.8730299,6 19.0030299,9.13 19.0030299,13 C19.0030299,16.87 15.8730299,20 12.0030299,20 Z" id="Shape" fill="#000000" fill-rule="nonzero"></path>
    </g>
</svg>