<?xml version="1.0" encoding="UTF-8"?>
<svg width="24px" height="24px" viewBox="0 0 24 24" version="1.1" xmlns="http://www.w3.org/2000/svg" xmlns:xlink="http://www.w3.org/1999/xlink">
    <!-- Generator: Sketch 52.6 (67491) - http://www.bohemiancoding.com/sketch -->
    <title>Icon / Underlined</title>
    <desc>Created with Sketch.</desc>
    <g id="Icon-/-Underlined" stroke="none" stroke-width="1" fill="none" fill-rule="evenodd">
        <path d="M12.79,16.95 C15.82,16.56 18,13.84 18,10.79 L18,4.25 C18,3.56 17.44,3 16.75,3 C16.06,3 15.5,3.56 15.5,4.25 L15.5,10.9 C15.5,12.57 14.37,14.09 12.73,14.42 C10.48,14.89 8.5,13.17 8.5,11 L8.5,4.25 C8.5,3.56 7.94,3 7.25,3 C6.56,3 6,3.56 6,4.25 L6,11 C6,14.57 9.13,17.42 12.79,16.95 Z M5,20 C5,20.55 5.45,21 6,21 L18,21 C18.55,21 19,20.55 19,20 C19,19.45 18.55,19 18,19 L6,19 C5.45,19 5,19.45 5,20 Z" id="Shape" fill="#000000" fill-rule="nonzero"></path>
    </g>
</svg>