<?xml version="1.0" encoding="UTF-8"?>
<svg width="24px" height="24px" viewBox="0 0 24 24" version="1.1" xmlns="http://www.w3.org/2000/svg" xmlns:xlink="http://www.w3.org/1999/xlink">
    <!-- Generator: Sketch 52.6 (67491) - http://www.bohemiancoding.com/sketch -->
    <title>Icon / Undo</title>
    <desc>Created with Sketch.</desc>
    <g id="Icon-/-Undo" stroke="none" stroke-width="1" fill="none" fill-rule="evenodd">
        <path d="M12.5,8 C9.85,8 7.45,8.99 5.6,10.6 L3.71,8.71 C3.08,8.08 2,8.52 2,9.41 L2,15 C2,15.55 2.45,16 3,16 L8.59,16 C9.48,16 9.93,14.92 9.3,14.29 L7.39,12.38 C8.78,11.22 10.55,10.5 12.51,10.5 C15.67,10.5 18.4,12.34 19.7,15 C19.97,15.56 20.61,15.84 21.2,15.64 C21.91,15.41 22.27,14.6 21.95,13.92 C20.23,10.42 16.65,8 12.5,8 Z" id="Path" fill="#000000" fill-rule="nonzero"></path>
    </g>
</svg>