<?xml version="1.0" encoding="UTF-8"?>
<svg width="24px" height="24px" viewBox="0 0 24 24" version="1.1" xmlns="http://www.w3.org/2000/svg" xmlns:xlink="http://www.w3.org/1999/xlink">
    <!-- Generator: Sketch 52.6 (67491) - http://www.bohemiancoding.com/sketch -->
    <title>Icon / Users Add Multi</title>
    <desc>Created with Sketch.</desc>
    <g id="Icon-/-Users-Add-Multi" stroke="none" stroke-width="1" fill="none" fill-rule="evenodd">
        <path d="M7,10 C7.55,10 8,10.45 8,11 C8,11.55 7.55,12 7,12 L5,12 L5,14 C5,14.55 4.55,15 4,15 C3.45,15 3,14.55 3,14 L3,12 L1,12 C0.45,12 0,11.55 0,11 C0,10.45 0.45,10 1,10 L3,10 L3,8 C3,7.45 3.45,7 4,7 C4.55,7 5,7.45 5,8 L5,10 L7,10 Z M18,11 C17.68,11 17.37,10.95 17.09,10.86 C17.65,10.04 17.99,9.07 17.99,8 C17.99,6.93 17.66,5.95 17.09,5.14 C17.37,5.05 17.68,5 18,5 C19.66,5 20.99,6.34 20.99,8 C20.99,9.66 19.66,11 18,11 Z M13,11 C11.34,11 10,9.66 10,8 C10,6.34 11.34,5 13,5 C14.66,5 15.99,6.34 15.99,8 C15.99,9.66 14.66,11 13,11 Z M13,13 C15,13 19,14 19,16 L19,17 C19,17.55 18.55,18 18,18 L8,18 C7.45,18 7,17.55 7,17 L7,16 C7,14 11,13 13,13 Z M19.62,13.16 C21.63,13.51 24,14.46 24,16 L24,17.5 C24,17.78 23.78,18 23.5,18 L20.95,18 C20.98,17.84 21,17.67 21,17.5 L21,16 C21,14.82 20.45,13.89 19.62,13.16 Z" id="Combined-Shape" fill="#000000" fill-rule="nonzero"></path>
    </g>
</svg>