<?xml version="1.0" encoding="UTF-8"?>
<svg width="24px" height="24px" viewBox="0 0 24 24" version="1.1" xmlns="http://www.w3.org/2000/svg" xmlns:xlink="http://www.w3.org/1999/xlink">
    <!-- Generator: Sketch 52.6 (67491) - http://www.bohemiancoding.com/sketch -->
    <title>Icon / Warning</title>
    <desc>Created with Sketch.</desc>
    <g id="Icon-/-Warning" stroke="none" stroke-width="1" fill="none" fill-rule="evenodd">
        <path d="M4.4713712,20.9975 L19.5313712,20.9975 C21.0713712,20.9975 22.0313712,19.3275 21.2613712,17.9975 L13.7313712,4.9875 C12.9613712,3.6575 11.0413712,3.6575 10.2713712,4.9875 L2.7413712,17.9975 C1.9713712,19.3275 2.9313712,20.9975 4.4713712,20.9975 Z M12.0013712,13.9975 C11.4513712,13.9975 11.0013712,13.5475 11.0013712,12.9975 L11.0013712,10.9975 C11.0013712,10.4475 11.4513712,9.9975 12.0013712,9.9975 C12.5513712,9.9975 13.0013712,10.4475 13.0013712,10.9975 L13.0013712,12.9975 C13.0013712,13.5475 12.5513712,13.9975 12.0013712,13.9975 Z M13.0013712,17.9975 L11.0013712,17.9975 L11.0013712,15.9975 L13.0013712,15.9975 L13.0013712,17.9975 Z" id="Shape" fill="#000000" fill-rule="nonzero"></path>
    </g>
</svg>