<?xml version="1.0" encoding="UTF-8"?>
<svg width="36px" height="40px" viewBox="0 0 36 40" version="1.1" xmlns="http://www.w3.org/2000/svg" xmlns:xlink="http://www.w3.org/1999/xlink">
    <!-- Generator: Sketch 53 (72520) - https://sketchapp.com -->
    <title>File Icon / WAV</title>
    <desc>Created with Sketch.</desc>
    <defs>
        <path d="M5.5,0 L26,0 L32,6 L32,34.5 C32,35.3284271 31.3284271,36 30.5,36 L5.5,36 C4.67157288,36 4,35.3284271 4,34.5 L4,1.5 C4,0.671572875 4.67157288,1.52179594e-16 5.5,0 Z" id="path-1"></path>
        <linearGradient x1="100%" y1="0%" x2="0%" y2="100%" id="linearGradient-3">
            <stop stop-color="#FAFAFA" stop-opacity="0.5" offset="0%"></stop>
            <stop stop-color="#FAFAFA" offset="100%"></stop>
        </linearGradient>
        <polygon id="path-4" points="13 0 -5.40012479e-13 10 -5.40012479e-13 18 13 28"></polygon>
    </defs>
    <g id="File-Icon-/-WAV" stroke="none" stroke-width="1" fill="none" fill-rule="evenodd">
        <mask id="mask-2" fill="white">
            <use xlink:href="#path-1"></use>
        </mask>
        <use id="Page" fill="#FFFFFF" xlink:href="#path-1"></use>
        <rect id="Rectangle" fill="#676767" fill-rule="nonzero" mask="url(#mask-2)" x="4" y="0" width="28" height="8"></rect>
        <rect id="Corner" fill="url(#linearGradient-3)" mask="url(#mask-2)" x="26" y="0" width="6" height="6"></rect>
        <path d="M16.6464466,15.0606602 L13.159781,18.5473258 L12.9089551,18.5083566 C12.8732743,18.5028131 12.8369084,18.5 12.8,18.5 L9.2,18.5 C8.81340068,18.5 8.5,18.8134007 8.5,19.2 L8.5,22.8 C8.5,23.1865993 8.81340068,23.5 9.2,23.5 L12.8,23.5 C12.8369084,23.5 12.8732743,23.4971869 12.9089551,23.4916434 L13.159781,23.4526742 L16.6464466,26.9393398 C16.8417088,27.134602 17.1582912,27.134602 17.3535534,26.9393398 C17.4473216,26.8455716 17.5,26.7183947 17.5,26.5857864 L17.5,15.4142136 C17.5,15.1380712 17.2761424,14.9142136 17,14.9142136 C16.8673918,14.9142136 16.7402148,14.966892 16.6464466,15.0606602 Z" id="Combined-Shape" stroke="#C8C6CA" fill-opacity="0.251217165" fill="#C8C6CA" fill-rule="nonzero" mask="url(#mask-2)"></path>
        <g id="Group" mask="url(#mask-2)">
            <g transform="translate(19.000000, 7.000000)">
                <mask id="mask-5" fill="white">
                    <use xlink:href="#path-4"></use>
                </mask>
                <g id="Path-6" stroke="none" fill="none" fill-rule="nonzero"></g>
                <circle id="Oval" stroke="#C8C6CA" stroke-width="1.25" fill="none" fill-rule="nonzero" mask="url(#mask-5)" cx="-1" cy="14" r="4.375"></circle>
                <circle id="Oval" stroke="#C8C6CA" stroke-width="1.25" fill="none" fill-rule="nonzero" mask="url(#mask-5)" cx="-1" cy="14" r="8.375"></circle>
            </g>
        </g>
    </g>
</svg>