<?xml version="1.0" encoding="UTF-8"?>
<svg width="36px" height="40px" viewBox="0 0 36 40" version="1.1" xmlns="http://www.w3.org/2000/svg" xmlns:xlink="http://www.w3.org/1999/xlink">
    <!-- Generator: Sketch 53 (72520) - https://sketchapp.com -->
    <title>File Icon / XLS</title>
    <desc>Created with Sketch.</desc>
    <defs>
        <path d="M5.5,0 L26,0 L32,6 L32,34.5 C32,35.3284271 31.3284271,36 30.5,36 L5.5,36 C4.67157288,36 4,35.3284271 4,34.5 L4,1.5 C4,0.671572875 4.67157288,1.52179594e-16 5.5,0 Z" id="path-1"></path>
        <linearGradient x1="100%" y1="0%" x2="0%" y2="100%" id="linearGradient-3">
            <stop stop-color="#FAFAFA" stop-opacity="0.5" offset="0%"></stop>
            <stop stop-color="#FAFAFA" offset="100%"></stop>
        </linearGradient>
    </defs>
    <g id="File-Icon-/-XLS" stroke="none" stroke-width="1" fill="none" fill-rule="evenodd">
        <mask id="mask-2" fill="white">
            <use xlink:href="#path-1"></use>
        </mask>
        <use id="Page" fill="#FFFFFF" xlink:href="#path-1"></use>
        <rect id="Rectangle" fill="#60BF00" fill-rule="nonzero" mask="url(#mask-2)" x="4" y="0" width="28" height="8"></rect>
        <rect id="Corner" fill="url(#linearGradient-3)" mask="url(#mask-2)" x="26" y="0" width="6" height="6"></rect>
        <g id="Group-2" mask="url(#mask-2)" fill-rule="nonzero" stroke="#C8C6CA">
            <g transform="translate(11.000000, 18.000000)" id="Rectangle">
                <rect x="8.5" y="0.5" width="8" height="3"></rect>
                <rect x="0.5" y="0.5" width="8" height="3"></rect>
                <rect x="8.5" y="3.5" width="8" height="3"></rect>
                <rect x="0.5" y="3.5" width="8" height="3"></rect>
                <rect x="8.5" y="6.5" width="8" height="3"></rect>
                <rect x="0.5" y="6.5" width="8" height="3"></rect>
            </g>
        </g>
        <path d="M9,14 L15,21" id="Path-4" stroke="#FFFFFF" stroke-width="6" stroke-linecap="round" stroke-linejoin="round" fill-rule="nonzero" mask="url(#mask-2)"></path>
        <path d="M9,14 L15,21" id="Path-4" stroke="#FFFFFF" stroke-width="6" stroke-linecap="round" stroke-linejoin="round" fill-rule="nonzero" mask="url(#mask-2)" transform="translate(12.000000, 17.500000) scale(-1, 1) translate(-12.000000, -17.500000) "></path>
        <g id="Group" mask="url(#mask-2)" fill-rule="nonzero" stroke="#A6A3A9" stroke-linecap="round" stroke-linejoin="round" stroke-width="2">
            <g transform="translate(9.000000, 15.000000)" id="Path-4">
                <path d="M-6.13287199e-13,-3.55271368e-15 L6,7"></path>
                <path d="M-6.13287199e-13,-3.55271368e-15 L6,7" transform="translate(3.000000, 3.500000) scale(-1, 1) translate(-3.000000, -3.500000) "></path>
            </g>
        </g>
    </g>
</svg>